<svg width="33" height="32" viewBox="0 0 33 32" fill="none" xmlns="http://www.w3.org/2000/svg">
<g id="Logo" clip-path="url(#clip0_4026_1573)">
<path id="Vector" fill-rule="evenodd" clip-rule="evenodd" d="M20.9446 9.34824C19.629 8.4692 18.0822 8 16.5 8V0C19.6645 0 22.7579 0.938384 25.3891 2.69649C28.0203 4.45458 30.071 6.95345 31.2821 9.87704C32.493 12.8006 32.8099 16.0178 32.1926 19.1214C31.5752 22.2251 30.0514 25.0761 27.8137 27.3137C25.5761 29.5514 22.7251 31.0752 19.6214 31.6926C16.5178 32.3099 13.3006 31.993 10.377 30.7821C7.45345 29.571 4.95458 27.5203 3.19649 24.8891C1.43838 22.2579 0.5 19.1645 0.5 16H8.5C8.5 17.5822 8.9692 19.129 9.84824 20.4446C10.7273 21.7602 11.9767 22.7855 13.4386 23.391C14.9003 23.9966 16.5089 24.155 18.0607 23.8462C19.6126 23.5376 21.038 22.7757 22.1569 21.6569C23.2757 20.538 24.0376 19.1126 24.3462 17.5607C24.655 16.0089 24.4966 14.4003 23.891 12.9386C23.2855 11.4767 22.2602 10.2273 20.9446 9.34824Z" fill="#ADADB3"/>
<path id="Vector_2" fill-rule="evenodd" clip-rule="evenodd" d="M8.5 3.465e-06C8.5 1.05058 8.29308 2.09087 7.89104 3.06147C7.489 4.03207 6.89972 4.91399 6.15685 5.65686C5.41399 6.39973 4.53208 6.989 3.56147 7.39104C2.59086 7.79308 1.55057 8 0.5 8L0.5 16C2.60115 16 4.68172 15.5862 6.62294 14.7821C8.56416 13.978 10.328 12.7994 11.8137 11.3137C13.2994 9.828 14.478 8.06416 15.2821 6.12294C16.0862 4.18172 16.5 2.10115 16.5 0L8.5 3.465e-06Z" fill="#ADADB3"/>
</g>
<defs>
<clipPath id="clip0_4026_1573">
<rect width="32" height="32" fill="white" transform="translate(0.5)"/>
</clipPath>
</defs>
</svg>
