<svg width="24" height="24" viewBox="0 0 24 24" fill="none" xmlns="http://www.w3.org/2000/svg">
<g id="apps-fill">
<path id="Vector" d="M8.0625 4.875C8.48109 4.875 8.89558 4.95745 9.2823 5.11763C9.66903 5.27782 10.0204 5.51261 10.3164 5.8086C10.6124 6.10458 10.8472 6.45597 11.0074 6.8427C11.1676 7.22942 11.25 7.64391 11.25 8.0625V11.25H8.0625C7.21712 11.25 6.40637 10.9142 5.8086 10.3164C5.21083 9.71863 4.875 8.90788 4.875 8.0625C4.875 7.21712 5.21083 6.40637 5.8086 5.8086C6.40637 5.21082 7.21712 4.875 8.0625 4.875ZM8.0625 12.75H11.25V15.9375C11.25 16.5679 11.0631 17.1842 10.7128 17.7084C10.3626 18.2326 9.86474 18.6411 9.2823 18.8824C8.69987 19.1236 8.05897 19.1867 7.44065 19.0638C6.82234 18.9408 6.25438 18.6372 5.8086 18.1914C5.36282 17.7456 5.05924 17.1777 4.93625 16.5594C4.81326 15.941 4.87638 15.3001 5.11764 14.7177C5.35889 14.1353 5.76744 13.6374 6.29162 13.2872C6.8158 12.9369 7.43207 12.75 8.0625 12.75ZM15.9375 4.875C16.7829 4.875 17.5936 5.21082 18.1914 5.8086C18.7892 6.40637 19.125 7.21712 19.125 8.0625C19.125 8.90788 18.7892 9.71863 18.1914 10.3164C17.5936 10.9142 16.7829 11.25 15.9375 11.25H12.75V8.0625C12.75 7.21712 13.0858 6.40637 13.6836 5.8086C14.2814 5.21082 15.0921 4.875 15.9375 4.875ZM12.75 12.75H15.9375C16.5679 12.75 17.1842 12.9369 17.7084 13.2872C18.2326 13.6374 18.6411 14.1353 18.8824 14.7177C19.1236 15.3001 19.1867 15.941 19.0638 16.5594C18.9408 17.1777 18.6372 17.7456 18.1914 18.1914C17.7456 18.6372 17.1777 18.9408 16.5594 19.0638C15.941 19.1867 15.3001 19.1236 14.7177 18.8824C14.1353 18.6411 13.6374 18.2326 13.2872 17.7084C12.9369 17.1842 12.75 16.5679 12.75 15.9375V12.75Z" fill="#171717"/>
</g>
</svg>
