<svg width="24" height="24" viewBox="0 0 24 24" fill="none" xmlns="http://www.w3.org/2000/svg">
<g id="file-text-fill">
<path id="Vector" d="M18.75 9.75V18.7448C18.7507 18.8432 18.732 18.9409 18.6949 19.0322C18.6579 19.1234 18.6032 19.2065 18.534 19.2766C18.4649 19.3468 18.3826 19.4026 18.2919 19.4409C18.2011 19.4792 18.1037 19.4993 18.0052 19.5H5.99475C5.79736 19.5 5.60804 19.4216 5.4684 19.2821C5.32875 19.1426 5.2502 18.9534 5.25 18.756V5.244C5.25 4.84125 5.58525 4.5 5.9985 4.5H13.5V9C13.5 9.19891 13.579 9.38968 13.7197 9.53033C13.8603 9.67098 14.0511 9.75 14.25 9.75H18.75ZM18.75 8.25H15V4.50225L18.75 8.25ZM9 8.25V9.75H11.25V8.25H9ZM9 11.25V12.75H15V11.25H9ZM9 14.25V15.75H15V14.25H9Z" fill="#171717"/>
</g>
</svg>
