<svg width="32" height="32" viewBox="0 0 32 32" fill="none" xmlns="http://www.w3.org/2000/svg">
<rect x="0.5" y="0.5" width="31" height="31" rx="15.5" stroke="#060606"/>
<path d="M21 16.7735H22V15.7735C22 15.2258 22.4523 14.7735 23 14.7735C23.5477 14.7735 24 15.2258 24 15.7735V23.7735H21V20.7735C21 19.6713 20.1023 18.7735 19 18.7735C17.8977 18.7735 17 19.6713 17 20.7735V23.7735H14V16.7735H21ZM10 23.7735H8V12.4635C8 12.4602 8.00029 12.4578 8.00057 12.4563L18.9942 8.2287C18.9946 8.22857 18.9949 8.22845 18.9952 8.22834C18.9972 8.2276 18.9987 8.22718 18.9997 8.22694C18.9998 8.22823 19 8.23039 19 8.23354V12.7735H12C10.8977 12.7735 10 13.6713 10 14.7735V23.7735Z" fill="black" stroke="#060606" stroke-width="2"/>
</svg>
