<svg width="32" height="32" viewBox="0 0 32 32" fill="none" xmlns="http://www.w3.org/2000/svg">
<rect x="0.5" y="0.5" width="31" height="31" rx="15.5" stroke="#060606"/>
<path d="M14.8769 24.9224L15.261 24.97C13.0656 24.7913 11.0921 23.8234 9.62496 22.3507C11.0051 23.7335 12.8341 24.669 14.8769 24.9224ZM21.4245 23.1805C19.9157 24.3224 18.0365 25 16 25V23.93V22V21H15C14.4523 21 14 20.5477 14 20V19V18.5858L13.7071 18.2929L12.4142 17H18V20V21H19H20C20.4475 21 20.8151 21.282 20.9478 21.6956L21.4245 23.1805ZM11 14V15.5858L8.91711 13.5029L7.76952 12.3553C9.16938 9.20156 12.3293 7 16 7C16.6873 7 17.3567 7.07719 18 7.22336V8.59V9C18 9.54772 17.5477 10 17 10H15H14V11V13H12H11V14ZM7 16C7 15.1843 7.10871 14.3939 7.31242 13.6423L7.23421 13.9913C7.09151 14.628 7 15.2924 7 16ZM19.3763 7.6635L19.0434 7.52832C22.4191 8.74244 24.8618 11.918 24.9943 15.6778C24.8659 12.0442 22.5743 8.96235 19.3763 7.6635ZM25 16C25 18.4699 24.0032 20.7086 22.3902 22.3354L22.6376 22.0653C24.0981 20.4699 25 18.3419 25 16Z" fill="black" stroke="#060606" stroke-width="2"/>
</svg>
