<svg width="32" height="32" viewBox="0 0 32 32" fill="none" xmlns="http://www.w3.org/2000/svg">
<rect x="0.5" y="0.5" width="31" height="31" rx="15.5" stroke="#060606"/>
<path d="M21.9978 13.6275V14.0724L22.3282 14.3702L23.3901 15.3275H22.9978H21.9978V16.3275L21.9978 23.3275L18.9978 23.3275V18.3275V17.3275H17.9978H13.9978H12.9978V18.3275V23.3275L9.99778 23.3275V16.3275V15.3275H8.99778H8.6063L15.9944 8.67287C15.995 8.67271 15.9962 8.67249 15.9978 8.67249C15.9994 8.67249 16.0005 8.67271 16.0011 8.67287L19.3284 11.6704L20.9978 13.1744V10.9275V9.32749H21.9978V13.6275ZM12.9978 14.3275V15.3275H13.9978H17.9978H18.9978V14.3275C18.9978 12.6752 17.6501 11.3275 15.9978 11.3275C14.3455 11.3275 12.9978 12.6752 12.9978 14.3275Z" fill="black" stroke="#060606" stroke-width="2"/>
</svg>
