<svg width="386" height="378" viewBox="0 0 386 378" fill="none" xmlns="http://www.w3.org/2000/svg">
<g opacity="0.5">
<path d="M197.067 174.4C205.093 174.4 211.6 180.907 211.6 188.933L211.6 421.467C211.6 429.493 205.093 436 197.067 436L160.733 436C152.707 436 146.2 429.493 146.2 421.467L146.2 303.659C146.2 297.185 138.373 293.943 133.795 298.521L6.59224 425.723C0.916638 431.399 -8.28536 431.399 -13.961 425.723L-39.7236 399.961C-45.3992 394.285 -45.3992 385.083 -39.7236 379.408L87.4791 252.205C92.0568 247.627 88.8147 239.8 82.3407 239.8L-35.4668 239.8C-43.4934 239.8 -50.0002 233.293 -50.0002 225.267L-50.0002 188.933C-50.0002 180.907 -43.4934 174.4 -35.4668 174.4L197.067 174.4Z" fill="#EF4343"/>
<path d="M386 206.918C386 200.999 381.201 196.2 375.282 196.2L298.618 196.2C292.699 196.2 287.9 200.999 287.9 206.918L287.9 250.882C287.9 256.801 292.699 261.6 298.618 261.6L375.282 261.6C381.201 261.6 386 256.801 386 250.882L386 206.918Z" fill="#EF4343"/>
<path d="M189.8 87.3816C189.8 93.3012 185.001 98.1 179.082 98.1L135.118 98.1C129.199 98.1 124.4 93.3012 124.4 87.3816L124.4 10.7183C124.4 4.79874 129.199 -1.12251e-05 135.118 -1.09664e-05L179.082 -9.04469e-06C185.001 -8.78593e-06 189.8 4.79875 189.8 10.7183L189.8 87.3816Z" fill="#EF4343"/>
<path d="M292.69 139.625C287.293 145.022 278.058 143.201 273.867 136.822C267.414 127.001 258.998 118.586 249.178 112.133C242.799 107.942 240.977 98.7067 246.375 93.3096L310.305 29.379C314.491 25.1932 321.277 25.1932 325.463 29.379L356.621 60.5368C360.807 64.7226 360.807 71.509 356.621 75.6948L292.69 139.625Z" fill="#EF4343"/>
</g>
</svg>
