<svg width="419" height="518" viewBox="0 0 419 518" fill="none" xmlns="http://www.w3.org/2000/svg">
<circle cx="210" cy="209" r="209" fill="#F3F4F6"/>
<path d="M384.367 130.833H33.4023V420.806H384.367V130.833Z" fill="white" stroke="#030712" stroke-width="0.892552" stroke-miterlimit="10" stroke-linecap="round" stroke-linejoin="round"/>
<path d="M364.944 397.108L384.365 410.025V420.788H336.016L364.944 397.108Z" fill="#030712" stroke="#030712" stroke-width="0.892552" stroke-miterlimit="10" stroke-linecap="round" stroke-linejoin="round"/>
<path d="M384.367 105H33.4023V130.816H384.367V105Z" fill="#030712" stroke="#030712" stroke-width="0.892552" stroke-miterlimit="10" stroke-linecap="round" stroke-linejoin="round"/>
<path d="M41.7422 112.984L51.6049 122.849" stroke="white" stroke-width="0.892552" stroke-miterlimit="10" stroke-linecap="round" stroke-linejoin="round"/>
<path d="M51.6049 112.984L41.7422 122.849" stroke="white" stroke-width="0.892552" stroke-miterlimit="10" stroke-linecap="round" stroke-linejoin="round"/>
<path d="M68.9786 113.983H59.1328V121.865H68.9786V113.983Z" stroke="white" stroke-width="0.892552" stroke-miterlimit="10" stroke-linecap="round" stroke-linejoin="round"/>
<path d="M86.3693 117.916H76.5234" stroke="white" stroke-width="0.892552" stroke-miterlimit="10" stroke-linecap="round" stroke-linejoin="round"/>
<path d="M307.684 277.168C314.028 270.811 339.64 286.169 364.898 311.476C390.155 336.783 405.482 362.446 399.138 368.802" stroke="#030712" stroke-width="0.892552" stroke-miterlimit="10" stroke-linecap="round" stroke-linejoin="round"/>
<path d="M364.945 397.109H300.846H116.922H52.8224L22.8789 510.475H146.865H270.902H394.888L364.945 397.109Z" fill="white" stroke="#030712" stroke-width="0.892552" stroke-miterlimit="10" stroke-linecap="round" stroke-linejoin="round"/>
<path d="M211.762 465.675L380.393 455.606L386.669 479.371L209.969 469.861L211.762 465.675Z" fill="#030712" stroke="#030712" stroke-width="0.892552" stroke-miterlimit="10" stroke-linecap="round" stroke-linejoin="round"/>
<path d="M394.905 510.474H22.8789V517H394.905V510.474Z" fill="#030712" stroke="#030712" stroke-width="0.892552" stroke-miterlimit="10" stroke-linecap="round" stroke-linejoin="round"/>
<path d="M236.074 390.804C239.525 387.346 253.431 395.686 267.134 409.433C280.837 423.163 289.16 437.113 285.726 440.554" stroke="#030712" stroke-width="0.892552" stroke-miterlimit="10" stroke-linecap="round" stroke-linejoin="round"/>
<path d="M239.895 455.385L212.27 469.572C209.343 471.081 206.213 467.945 207.719 465.013L221.879 437.333L239.895 455.385Z" fill="white" stroke="#030712" stroke-width="0.892552" stroke-miterlimit="10" stroke-linecap="round" stroke-linejoin="round"/>
<path d="M400.577 276.32C395.569 271.302 387.449 271.302 382.442 276.32L222.168 436.909C220.476 438.604 223.149 444.062 228.157 449.08C233.164 454.097 238.611 456.792 240.303 455.08L400.577 294.491C405.584 289.49 405.584 281.337 400.577 276.32Z" fill="white" stroke="#030712" stroke-width="0.892552" stroke-miterlimit="10" stroke-linecap="round" stroke-linejoin="round"/>
<path d="M364.187 294.609C362.495 296.304 365.168 301.762 370.175 306.78C375.183 311.797 380.63 314.492 382.322 312.78L378.634 316.476C376.925 318.171 371.495 315.492 366.487 310.475C361.48 305.458 358.79 300 360.499 298.305L364.187 294.609Z" fill="#030712" stroke="#030712" stroke-width="0.892552" stroke-miterlimit="10" stroke-linecap="round" stroke-linejoin="round"/>
<path d="M202.32 462.097L199.731 454.893L197.126 447.672L193.54 450.367L189.953 453.063L196.145 457.588L202.32 462.097Z" fill="#030712"/>
<path d="M199.882 466.843L195.23 465.131L190.578 463.419L190.426 466.334L190.273 469.233L195.078 468.029L199.882 466.843Z" fill="#030712"/>
<path d="M402.539 271.811L410.761 265.726L419 259.623L414.178 256.047L409.357 252.47L405.956 262.149L402.539 271.811Z" fill="#030712"/>
<path d="M398.547 269.082L398.953 262.454L399.342 255.81L395.569 256.725L391.797 257.64L395.18 263.37L398.547 269.082Z" fill="#030712"/>
<path d="M407.277 274.828L411.947 275.048L416.616 275.269L415.922 272.608L415.245 269.946L411.27 272.387L407.277 274.828Z" fill="#030712"/>
<path d="M399.137 368.785C392.793 375.141 367.18 359.784 341.922 334.477C316.665 309.169 301.338 283.506 307.682 277.15" stroke="#030712" stroke-width="0.892552" stroke-miterlimit="10" stroke-linecap="round" stroke-linejoin="round"/>
<path d="M285.726 440.554C282.275 444.011 268.369 435.672 254.666 421.925C240.963 408.178 232.64 394.245 236.074 390.804" stroke="#030712" stroke-width="0.892552" stroke-miterlimit="10" stroke-linecap="round" stroke-linejoin="round"/>
<path d="M348.877 405.109L349.553 413.839L357.877 416.059L348.775 418.28L345.019 427.009L344.343 418.28L336.02 416.059L345.121 413.839L348.877 405.109Z" fill="#030712"/>
<path d="M68.1554 458.911L69.2888 473.556L83.2455 477.286L67.9862 481.015L61.693 495.66L60.5426 481.015L46.5859 477.286L61.8622 473.556L68.1554 458.911Z" fill="#030712"/>
<path d="M208.181 241.435C213.983 253.605 225.165 263.114 237.955 266.793C226.468 270.471 218.635 279.98 217.113 292.151V292.134C211.31 279.98 200.145 270.471 187.372 266.793H187.355C198.842 263.114 206.658 253.588 208.181 241.435Z" fill="#030712"/>
<path d="M223.641 329.256L201.648 204.313" stroke="#030712" stroke-width="0.845861" stroke-miterlimit="10" stroke-linecap="round" stroke-linejoin="round"/>
<path d="M150.289 266.776H275.003" stroke="#030712" stroke-width="0.845861" stroke-miterlimit="10" stroke-linecap="round" stroke-linejoin="round"/>
<path d="M135.485 368.344L33.4062 378.549V325.866L135.485 368.344Z" fill="#030712" stroke="#030712" stroke-width="0.892552" stroke-miterlimit="10" stroke-linecap="round" stroke-linejoin="round"/>
<path d="M267.75 225.028L384.293 236.673V182.55L267.75 225.028Z" fill="#030712" stroke="#030712" stroke-width="0.892552" stroke-miterlimit="10" stroke-linecap="round" stroke-linejoin="round"/>
<path d="M410.819 225.097H268.63C264.705 225.097 260.967 221.91 260.29 217.995L242.764 118.444C242.07 114.512 244.692 111.342 248.6 111.342H390.789C394.714 111.342 398.453 114.529 399.129 118.444L416.656 217.995C417.366 221.91 414.744 225.097 410.819 225.097Z" fill="white" stroke="#030712" stroke-width="0.892552" stroke-miterlimit="10" stroke-linecap="round" stroke-linejoin="round"/>
<path d="M306.134 176.38H290.079C288.506 176.38 287.017 175.108 286.747 173.532L283.921 157.446C283.651 155.869 284.7 154.598 286.256 154.598H302.31C303.884 154.598 305.373 155.869 305.643 157.446L308.468 173.532C308.756 175.108 307.707 176.38 306.134 176.38Z" fill="white" stroke="#030712" stroke-width="0.892552" stroke-miterlimit="10" stroke-linecap="round" stroke-linejoin="round"/>
<path d="M277.983 158.87H265.109" stroke="#030712" stroke-width="0.892552" stroke-miterlimit="10" stroke-linecap="round" stroke-linejoin="round"/>
<path d="M267.543 168.719H278.996L279.588 172.109H268.135L267.543 168.719Z" fill="#030712"/>
<path d="M268.117 160.633H275.578L276.17 164.023H268.709L268.117 160.633Z" fill="#030712"/>
<path d="M279.401 166.956H266.527" stroke="#030712" stroke-width="0.892552" stroke-miterlimit="10" stroke-linecap="round" stroke-linejoin="round"/>
<path d="M314.406 172.108H327.28" stroke="#030712" stroke-width="0.892552" stroke-miterlimit="10" stroke-linecap="round" stroke-linejoin="round"/>
<path d="M324.846 162.259H313.393L312.801 158.869H324.254L324.846 162.259Z" fill="#030712"/>
<path d="M324.271 170.345H316.811L316.219 166.955H323.679L324.271 170.345Z" fill="#030712"/>
<path d="M312.988 164.022H325.862" stroke="#030712" stroke-width="0.892552" stroke-miterlimit="10" stroke-linecap="round" stroke-linejoin="round"/>
<path d="M302.226 163.175H289.352" stroke="#030712" stroke-width="0.892552" stroke-miterlimit="10" stroke-linecap="round" stroke-linejoin="round"/>
<path d="M290.586 166.125H302.022L302.631 169.498H291.178L290.586 166.125Z" fill="#030712"/>
<path d="M291.754 161.48H299.214L299.823 164.853H292.346L291.754 161.48Z" fill="#030712"/>
<path d="M303.038 167.803H290.164" stroke="#030712" stroke-width="0.892552" stroke-miterlimit="10" stroke-linecap="round" stroke-linejoin="round"/>
<path d="M335.605 159.04L337.872 171.939" stroke="#030712" stroke-width="0.892552" stroke-miterlimit="10" stroke-linecap="round" stroke-linejoin="round"/>
<path d="M339.494 171.227L337.48 159.752H340.864L342.877 171.227H339.494Z" fill="#030712"/>
<path d="M347.206 169.227L345.887 161.752H349.27L350.59 169.227H347.206Z" fill="#030712"/>
<path d="M343.672 159.04L345.939 171.939" stroke="#030712" stroke-width="0.892552" stroke-miterlimit="10" stroke-linecap="round" stroke-linejoin="round"/>
<path d="M393.497 171.939L391.23 159.04" stroke="#030712" stroke-width="0.892552" stroke-miterlimit="10" stroke-linecap="round" stroke-linejoin="round"/>
<path d="M389.606 159.752L391.619 171.227H388.236L386.223 159.752H389.606Z" fill="#030712"/>
<path d="M381.891 161.751L383.211 169.227H379.827L378.508 161.751H381.891Z" fill="#030712"/>
<path d="M385.427 171.939L383.16 159.04" stroke="#030712" stroke-width="0.892552" stroke-miterlimit="10" stroke-linecap="round" stroke-linejoin="round"/>
<path d="M365.734 159.04L368.001 171.939" stroke="#030712" stroke-width="0.892552" stroke-miterlimit="10" stroke-linecap="round" stroke-linejoin="round"/>
<path d="M364.94 171.227L362.909 159.752H359.543L361.556 171.227H364.94Z" fill="#030712"/>
<path d="M369.223 169.227L367.903 161.751H364.52L365.839 169.227H369.223Z" fill="#030712"/>
<path d="M361.098 159.04L363.365 171.939" stroke="#030712" stroke-width="0.892552" stroke-miterlimit="10" stroke-linecap="round" stroke-linejoin="round"/>
<path d="M367.88 147.835H351.825C350.252 147.835 348.763 146.563 348.493 144.987L345.668 128.901C345.397 127.325 346.446 126.053 348.002 126.053H364.057C365.63 126.053 367.119 127.325 367.389 128.901L370.214 144.987C370.502 146.563 369.453 147.835 367.88 147.835Z" fill="white" stroke="#030712" stroke-width="0.892552" stroke-miterlimit="10" stroke-linecap="round" stroke-linejoin="round"/>
<path d="M259.949 130.494L262.216 143.394" stroke="#030712" stroke-width="0.892552" stroke-miterlimit="10" stroke-linecap="round" stroke-linejoin="round"/>
<path d="M274.393 137.63H262.957L263.549 141.02H275.002L274.393 137.63Z" fill="#030712"/>
<path d="M269.574 132.85H262.113L262.705 136.24H270.166L269.574 132.85Z" fill="#030712"/>
<path d="M317.641 130.494L319.908 143.394" stroke="#030712" stroke-width="0.892552" stroke-miterlimit="10" stroke-linecap="round" stroke-linejoin="round"/>
<path d="M305.695 137.63H317.148L317.74 141.02H306.304L305.695 137.63Z" fill="#030712"/>
<path d="M308.844 132.85H316.304L316.913 136.24H309.436L308.844 132.85Z" fill="#030712"/>
<path d="M288.793 130.494L291.06 143.394" stroke="#030712" stroke-width="0.892552" stroke-miterlimit="10" stroke-linecap="round" stroke-linejoin="round"/>
<path d="M284.328 137.629H295.781L296.373 141.02H284.92L284.328 137.629Z" fill="#030712"/>
<path d="M285.48 132.85H292.941L293.533 136.24H286.073L285.48 132.85Z" fill="#030712"/>
<path d="M340.409 130.325H327.535" stroke="#030712" stroke-width="0.892552" stroke-miterlimit="10" stroke-linecap="round" stroke-linejoin="round"/>
<path d="M335.6 143.546L333.587 132.071H330.203L332.216 143.546H335.6Z" fill="#030712"/>
<path d="M339.676 139.563L338.356 132.071H334.973L336.292 139.563H339.676Z" fill="#030712"/>
<path d="M388.352 143.546H375.461" stroke="#030712" stroke-width="0.892552" stroke-miterlimit="10" stroke-linecap="round" stroke-linejoin="round"/>
<path d="M378.88 130.325L380.893 141.8H377.526L375.496 130.325H378.88Z" fill="#030712"/>
<path d="M384.364 134.308L385.683 141.8H382.3L380.98 134.308H384.364Z" fill="#030712"/>
<path d="M364.382 136.936H351.508" stroke="#030712" stroke-width="0.892552" stroke-miterlimit="10" stroke-linecap="round" stroke-linejoin="round"/>
<path d="M356.23 131.206L358.26 142.682H354.876L352.863 131.206H356.23Z" fill="#030712"/>
<path d="M361.359 133.189L362.678 140.682H359.312L357.992 133.189H361.359Z" fill="#030712"/>
<path d="M282.333 208.737H274.754L273.418 201.144H280.997L282.333 208.737Z" fill="#030712" stroke="#030712" stroke-width="0.892552" stroke-miterlimit="10" stroke-linecap="round" stroke-linejoin="round"/>
<path d="M286.513 212.28H278.934L277.598 204.686H285.177L286.513 212.28Z" fill="#030712" stroke="#030712" stroke-width="0.892552" stroke-miterlimit="10" stroke-linecap="round" stroke-linejoin="round"/>
<path d="M304.951 208.737H297.372L296.035 201.144H303.614L304.951 208.737Z" fill="#030712" stroke="#030712" stroke-width="0.892552" stroke-miterlimit="10" stroke-linecap="round" stroke-linejoin="round"/>
<path d="M309.111 212.28H301.532L300.195 204.686H307.774L309.111 212.28Z" fill="white" stroke="#030712" stroke-width="0.892552" stroke-miterlimit="10" stroke-linecap="round" stroke-linejoin="round"/>
<path d="M326.845 204.686L326.22 201.144H318.641L319.977 208.737H323.53L322.819 204.686H326.845Z" fill="white" stroke="#030712" stroke-width="0.892552" stroke-miterlimit="10" stroke-linecap="round" stroke-linejoin="round"/>
<path d="M326.847 204.686L327.558 208.737H323.531L324.157 212.28H331.736L330.4 204.686H326.847Z" fill="white" stroke="#030712" stroke-width="0.892552" stroke-miterlimit="10" stroke-linecap="round" stroke-linejoin="round"/>
<path d="M326.847 204.686H322.82L323.531 208.737H327.557L326.847 204.686Z" fill="#030712" stroke="#030712" stroke-width="0.892552" stroke-miterlimit="10" stroke-linecap="round" stroke-linejoin="round"/>
<path d="M349.463 204.686L348.837 201.144H341.258L342.594 208.737H346.147L345.419 204.686H349.463Z" fill="#030712" stroke="#030712" stroke-width="0.892552" stroke-miterlimit="10" stroke-linecap="round" stroke-linejoin="round"/>
<path d="M349.464 204.686L350.175 208.737H346.148L346.757 212.28H354.353L353.017 204.686H349.464Z" fill="#030712" stroke="#030712" stroke-width="0.892552" stroke-miterlimit="10" stroke-linecap="round" stroke-linejoin="round"/>
<path d="M349.461 204.686H345.418L346.145 208.737H350.172L349.461 204.686Z" fill="white" stroke="#030712" stroke-width="0.892552" stroke-miterlimit="10" stroke-linecap="round" stroke-linejoin="round"/>
<path d="M372.06 204.686L371.451 201.144H363.855L365.192 208.737H368.745L368.034 204.686H372.06Z" fill="white" stroke="#030712" stroke-width="0.892552" stroke-miterlimit="10" stroke-linecap="round" stroke-linejoin="round"/>
<path d="M372.062 204.686L372.789 208.737H368.746L369.372 212.28H376.951L375.614 204.686H372.062Z" fill="white" stroke="#030712" stroke-width="0.892552" stroke-miterlimit="10" stroke-linecap="round" stroke-linejoin="round"/>
<path d="M372.061 204.686H368.035L368.746 208.737H372.789L372.061 204.686Z" fill="white" stroke="#030712" stroke-width="0.892552" stroke-miterlimit="10" stroke-linecap="round" stroke-linejoin="round"/>
<path d="M399.572 212.28H391.993L390.656 204.686H398.235L399.572 212.28Z" fill="#030712" stroke="#030712" stroke-width="0.892552" stroke-miterlimit="10" stroke-linecap="round" stroke-linejoin="round"/>
<path d="M395.392 208.737H387.813L386.477 201.144H394.055L395.392 208.737Z" fill="white" stroke="#030712" stroke-width="0.892552" stroke-miterlimit="10" stroke-linecap="round" stroke-linejoin="round"/>
<path d="M396.503 189.041H270.25" stroke="#030712" stroke-width="0.892552" stroke-miterlimit="10" stroke-linecap="round" stroke-linejoin="round"/>
<path d="M134.859 368.378H28.2634C24.3386 368.378 20.5999 365.192 19.9232 361.276L1.11126 254.454C0.417654 250.521 3.03982 247.352 6.9477 247.352H113.56C117.485 247.352 121.223 250.538 121.9 254.454L140.712 361.276C141.406 365.192 138.784 368.378 134.859 368.378Z" fill="white" stroke="#030712" stroke-width="0.892552" stroke-miterlimit="10" stroke-linecap="round" stroke-linejoin="round"/>
<path d="M25.607 337.139L11.8025 258.726C11.6672 257.946 12.1916 257.302 12.9698 257.302H111.056C111.834 257.302 112.595 257.946 112.731 258.726L126.535 337.156C126.67 337.936 126.146 338.58 125.368 338.58H27.2649C26.4867 338.563 25.7423 337.936 25.607 337.139Z" fill="#030712" stroke="#030712" stroke-width="0.892552" stroke-miterlimit="10" stroke-linecap="round" stroke-linejoin="round"/>
<path d="M97.9052 287.132C101.943 282.713 100.955 275.221 95.6972 270.397C90.4397 265.573 82.9042 265.245 78.8662 269.664C74.8282 274.083 75.8167 281.575 81.0742 286.398C86.3317 291.222 93.8672 291.55 97.9052 287.132Z" stroke="white" stroke-width="0.892552" stroke-miterlimit="10" stroke-linecap="round" stroke-linejoin="round"/>
<path d="M90.0345 279.909C90.7349 279.142 90.5653 277.845 89.6557 277.01C88.7462 276.176 87.4411 276.12 86.7407 276.887C86.0404 277.653 86.21 278.951 87.1195 279.785C88.0291 280.62 89.3342 280.675 90.0345 279.909Z" fill="white" stroke="white" stroke-width="0.892552" stroke-miterlimit="10" stroke-linecap="round" stroke-linejoin="round"/>
<path d="M128.534 348.497H27.6055" stroke="#030712" stroke-width="0.892552" stroke-miterlimit="10" stroke-linecap="round" stroke-linejoin="round"/>
<path d="M96.8346 350.699C97.8567 349.581 97.6072 347.685 96.2773 346.465C94.9475 345.245 93.0408 345.163 92.0187 346.281C90.9966 347.399 91.246 349.295 92.5759 350.515C93.9058 351.735 95.8125 351.818 96.8346 350.699Z" fill="white" stroke="#030712" stroke-width="0.892552" stroke-miterlimit="10" stroke-linecap="round" stroke-linejoin="round"/>
<path d="M130.272 358.446H29.3438" stroke="#030712" stroke-width="0.892552" stroke-miterlimit="10" stroke-linecap="round" stroke-linejoin="round"/>
<path d="M48.7448 360.639C49.7669 359.521 49.5174 357.625 48.1875 356.405C46.8576 355.185 44.951 355.102 43.9288 356.221C42.9067 357.339 43.1562 359.235 44.4861 360.455C45.816 361.675 47.7226 361.758 48.7448 360.639Z" fill="white" stroke="#030712" stroke-width="0.892552" stroke-miterlimit="10" stroke-linecap="round" stroke-linejoin="round"/>
<path d="M94.9822 424.602C97.0844 424.602 98.7885 422.895 98.7885 420.788C98.7885 418.682 97.0844 416.975 94.9822 416.975C92.88 416.975 91.1758 418.682 91.1758 420.788C91.1758 422.895 92.88 424.602 94.9822 424.602Z" fill="white" stroke="#030712" stroke-width="0.845861" stroke-miterlimit="10" stroke-linecap="round" stroke-linejoin="round"/>
<path d="M15.572 204.958C17.6742 204.958 19.3784 203.25 19.3784 201.144C19.3784 199.038 17.6742 197.33 15.572 197.33C13.4698 197.33 11.7656 199.038 11.7656 201.144C11.7656 203.25 13.4698 204.958 15.572 204.958Z" fill="white" stroke="#030712" stroke-width="0.845861" stroke-miterlimit="10" stroke-linecap="round" stroke-linejoin="round"/>
<path d="M298.817 253.419C300.49 253.419 301.845 252.061 301.845 250.385C301.845 248.71 300.49 247.351 298.817 247.351C297.145 247.351 295.789 248.71 295.789 250.385C295.789 252.061 297.145 253.419 298.817 253.419Z" fill="white" stroke="#030712" stroke-width="0.845861" stroke-miterlimit="10" stroke-linecap="round" stroke-linejoin="round"/>
<path d="M316.036 443.587C317.708 443.587 319.064 442.229 319.064 440.553C319.064 438.877 317.708 437.519 316.036 437.519C314.364 437.519 313.008 438.877 313.008 440.553C313.008 442.229 314.364 443.587 316.036 443.587Z" fill="white" stroke="#030712" stroke-width="0.845861" stroke-miterlimit="10" stroke-linecap="round" stroke-linejoin="round"/>
<path d="M140.808 230.113C142.191 230.113 143.312 228.989 143.312 227.604C143.312 226.218 142.191 225.095 140.808 225.095C139.426 225.095 138.305 226.218 138.305 227.604C138.305 228.989 139.426 230.113 140.808 230.113Z" fill="white" stroke="#030712" stroke-width="0.845861" stroke-miterlimit="10" stroke-linecap="round" stroke-linejoin="round"/>
<path d="M225.396 174.921C226.508 174.921 227.409 174.018 227.409 172.904C227.409 171.79 226.508 170.887 225.396 170.887C224.284 170.887 223.383 171.79 223.383 172.904C223.383 174.018 224.284 174.921 225.396 174.921Z" fill="white" stroke="#030712" stroke-width="0.845861" stroke-miterlimit="10" stroke-linecap="round" stroke-linejoin="round"/>
<path d="M167.322 370.395C168.434 370.395 169.335 369.492 169.335 368.378C169.335 367.264 168.434 366.361 167.322 366.361C166.21 366.361 165.309 367.264 165.309 368.378C165.309 369.492 166.21 370.395 167.322 370.395Z" fill="white" stroke="#030712" stroke-width="0.845861" stroke-miterlimit="10" stroke-linecap="round" stroke-linejoin="round"/>
<path d="M150.287 497.168C151.398 497.168 152.3 496.265 152.3 495.151C152.3 494.037 151.398 493.134 150.287 493.134C149.175 493.134 148.273 494.037 148.273 495.151C148.273 496.265 149.175 497.168 150.287 497.168Z" fill="white" stroke="#030712" stroke-width="0.845861" stroke-miterlimit="10" stroke-linecap="round" stroke-linejoin="round"/>
<path d="M410.755 119.934C411.867 119.934 412.768 119.031 412.768 117.917C412.768 116.803 411.867 115.899 410.755 115.899C409.644 115.899 408.742 116.803 408.742 117.917C408.742 119.031 409.644 119.934 410.755 119.934Z" fill="white" stroke="#030712" stroke-width="0.845861" stroke-miterlimit="10" stroke-linecap="round" stroke-linejoin="round"/>
<path d="M202.711 186.448H191.224L187.367 191.144L181.852 186.448H134.484C132.302 186.448 130.238 184.685 129.849 182.499L126.618 163.718C126.229 161.531 127.683 159.768 129.866 159.768H198.093C200.275 159.768 202.339 161.531 202.728 163.718L205.959 182.499C206.332 184.685 204.877 186.448 202.711 186.448Z" fill="white" stroke="#030712" stroke-width="0.845861" stroke-miterlimit="10" stroke-linecap="round" stroke-linejoin="round"/>
<path d="M147.142 178.008C149.546 175.378 148.959 170.919 145.83 168.048C142.702 165.178 138.217 164.984 135.814 167.615C133.41 170.245 133.997 174.704 137.125 177.574C140.254 180.444 144.738 180.639 147.142 178.008Z" fill="#030712"/>
<path d="M202.404 315.61H251.176L255.033 310.915L260.548 315.61H270.648C272.83 315.61 274.894 317.373 275.283 319.56L280.629 349.952C281.018 352.139 279.563 353.902 277.381 353.902H209.154C206.971 353.902 204.907 352.139 204.518 349.952L199.172 319.56C198.783 317.373 200.238 315.61 202.404 315.61Z" fill="white" stroke="#030712" stroke-width="0.845861" stroke-miterlimit="10" stroke-linecap="round" stroke-linejoin="round"/>
<path d="M220.693 334.407C223.097 331.777 222.51 327.318 219.381 324.447C216.253 321.577 211.768 321.383 209.364 324.013C206.96 326.644 207.548 331.103 210.676 333.973C213.804 336.843 218.289 337.038 220.693 334.407Z" fill="#030712"/>
<path d="M66.1866 165.176C63.04 162.498 61.9742 157.565 63.852 153.005L81.0738 160.142C79.1959 164.701 74.9497 167.43 70.8558 167.108C70.5512 167.091 70.3652 167.532 70.602 167.735C73.7486 170.414 74.8144 175.346 72.9366 179.906L55.7148 172.77C57.5927 168.21 61.8389 165.481 65.9328 165.803C66.2374 165.82 66.4234 165.362 66.1866 165.176Z" fill="white" stroke="#030712" stroke-width="0.845861" stroke-miterlimit="10" stroke-linecap="round" stroke-linejoin="round"/>
<path d="M62.1572 153.428L81.9844 161.632L83.0821 158.968L63.2549 150.764L62.1572 153.428Z" fill="#030712" stroke="#030712" stroke-width="0.845861" stroke-miterlimit="10" stroke-linecap="round" stroke-linejoin="round"/>
<path d="M74.6397 179.474L54.8125 171.27L53.7148 173.933L73.5419 182.137L74.6397 179.474Z" fill="#030712" stroke="#030712" stroke-width="0.845861" stroke-miterlimit="10" stroke-linecap="round" stroke-linejoin="round"/>
<path d="M92.2807 166.328C91.8747 169.515 89.8277 172.024 86.8164 172.973C90.166 173.939 93.1096 176.431 94.6322 179.617C95.0382 176.431 97.0852 173.939 100.096 172.973C96.7468 172.007 93.8032 169.515 92.2807 166.328Z" fill="#030712"/>
<path d="M50.2048 183.872C49.9172 186.126 48.4792 187.889 46.3477 188.567C48.7161 189.245 50.78 191.008 51.8627 193.263C52.1503 191.008 53.5882 189.245 55.7198 188.567C53.3514 187.889 51.2706 186.126 50.2048 183.872Z" fill="#030712"/>
<path d="M51.6429 138.479C51.4399 140.14 50.3741 141.445 48.8008 141.936C50.5433 142.445 52.0658 143.733 52.8609 145.394C53.0639 143.733 54.1297 142.428 55.703 141.936C53.9605 141.445 52.438 140.14 51.6429 138.479Z" fill="#030712"/>
</svg>
