<svg width="72" height="108" viewBox="0 0 72 108" fill="none" xmlns="http://www.w3.org/2000/svg">
<path fill-rule="evenodd" clip-rule="evenodd" d="M70 -52C70 -63.0457 78.9543 -72 90 -72C101.046 -72 110 -63.0457 110 -52V-30.7208L125.137 -45.8579C132.948 -53.6684 145.611 -53.6684 153.421 -45.8579C161.232 -38.0474 161.232 -25.3841 153.421 -17.5736L137.848 -2H160C171.046 -2 180 6.95431 180 18C180 29.0457 171.046 38 160 38H138.284L153.421 53.1371C161.232 60.9476 161.232 73.6109 153.421 81.4214C145.611 89.2319 132.948 89.2319 125.137 81.4214L110 66.2843V88C110 99.0457 101.046 108 90 108C78.9543 108 70 99.0457 70 88V65.8477L54.4264 81.4213C46.6159 89.2318 33.9526 89.2318 26.1421 81.4213C18.3316 73.6108 18.3316 60.9475 26.1421 53.1371L41.2792 38H20C8.95431 38 0 29.0457 0 18C0 6.95432 8.9543 -1.99999 20 -1.99999H41.7157L26.1421 -17.5736C18.3316 -25.384 18.3316 -38.0473 26.1421 -45.8578C33.9526 -53.6683 46.6159 -53.6683 54.4264 -45.8578L70 -30.2842V-52Z" fill="#D9EBFF"/>
</svg>
