<svg width="191" height="90" viewBox="0 0 191 90" fill="none" xmlns="http://www.w3.org/2000/svg">
<path d="M180 -90C203.869 -90 226.761 -80.5179 243.64 -63.6396C260.518 -46.7613 270 -23.8695 270 -7.62939e-06C270 23.8695 260.518 46.7613 243.64 63.6396C226.761 80.5179 203.869 90 180 90L180 0V-90Z" fill="#007AFF" fill-opacity="0.15"/>
<path d="M90 -90C113.869 -90 136.761 -80.5179 153.64 -63.6396C170.518 -46.7613 180 -23.8695 180 -7.62939e-06C180 23.8695 170.518 46.7613 153.64 63.6396C136.761 80.5179 113.869 90 90 90L90 0V-90Z" fill="#007AFF" fill-opacity="0.15"/>
</svg>
